<svg width="48" height="48" viewBox="0 0 48 48" fill="none" xmlns="http://www.w3.org/2000/svg">
<path d="M22.4643 6.65212L6.63813 22.4652C5.78729 23.3154 5.78729 24.6885 6.63813 25.5386L22.4643 41.3518C23.3151 42.2019 24.6894 42.2019 25.5402 41.3518L32.1759 34.7215C32.9378 33.9602 32.9378 32.7258 32.1759 31.9644C31.4139 31.203 30.1784 31.203 29.4165 31.9644L24.386 36.9907C24.1742 37.2023 23.8528 37.2023 23.6411 36.9907L11.0028 24.3628C10.791 24.1512 10.791 23.8301 11.0028 23.6185L23.6411 10.9906C23.8528 10.779 24.1742 10.779 24.386 10.9906L29.4165 16.0169C30.1784 16.7782 31.4139 16.7782 32.1759 16.0169C32.9378 15.2555 32.9378 14.0211 32.1759 13.2597L25.5409 6.63025C24.6866 5.79851 23.3118 5.80524 22.4643 6.65212Z" fill="url(#paint0_linear_52_115)"/>
<path d="M22.4643 6.65212L6.63813 22.4652C5.78729 23.3154 5.78729 24.6885 6.63813 25.5386L22.4643 41.3518C23.3151 42.2019 24.6894 42.2019 25.5402 41.3518L32.1759 34.7215C32.9378 33.9602 32.9378 32.7258 32.1759 31.9644C31.4139 31.203 30.1784 31.203 29.4165 31.9644L24.386 36.9907C24.1742 37.2023 23.8528 37.2023 23.6411 36.9907L11.0028 24.3628C10.791 24.1512 10.791 23.8301 11.0028 23.6185L23.6411 10.9906C24.1684 10.536 25.0287 9.61522 26.2922 9.39988C27.2311 9.23983 28.2577 9.59208 29.3718 10.4566C28.6269 9.71238 27.35 8.43692 25.5409 6.63025C24.6866 5.79851 23.3118 5.80524 22.4643 6.65212Z" fill="url(#paint1_linear_52_115)"/>
<path d="M33.7075 30.4937C34.4695 31.2551 35.7049 31.2551 36.4669 30.4937L41.3617 25.603C42.2126 24.7528 42.2126 23.3797 41.3618 22.5297L36.4244 17.6138C35.6606 16.8533 34.4248 16.8544 33.6623 17.6162C32.9003 18.3776 32.9003 19.612 33.6623 20.3733L36.9971 23.7054C37.2089 23.917 37.2089 24.2381 36.9971 24.4497L33.7075 27.7366C32.9455 28.498 32.9455 29.7324 33.7075 30.4937Z" fill="url(#paint2_linear_52_115)"/>
<path d="M24.0816 28.3505C26.4416 28.3505 28.3547 26.439 28.3547 24.081C28.3547 21.723 26.4416 19.8115 24.0816 19.8115C21.7217 19.8115 19.8086 21.723 19.8086 24.081C19.8086 26.439 21.7217 28.3505 24.0816 28.3505Z" fill="url(#paint3_linear_52_115)"/>
<defs>
<linearGradient id="paint0_linear_52_115" x1="22.6107" y1="6.01166" x2="37.6502" y2="15.196" gradientUnits="userSpaceOnUse">
<stop stop-color="#4285EB"/>
<stop offset="1" stop-color="#2EC7FF"/>
</linearGradient>
<linearGradient id="paint1_linear_52_115" x1="24.628" y1="6.01166" x2="17.1999" y2="44.4021" gradientUnits="userSpaceOnUse">
<stop stop-color="#29CDFF"/>
<stop offset="0.378601" stop-color="#148EFF"/>
<stop offset="1" stop-color="#0A60FF"/>
</linearGradient>
<linearGradient id="paint2_linear_52_115" x1="39.2996" y1="15.225" x2="29.6345" y2="30.3405" gradientUnits="userSpaceOnUse">
<stop stop-color="#FA816E"/>
<stop offset="0.414726" stop-color="#F74A5C"/>
<stop offset="1" stop-color="#F51D2C"/>
</linearGradient>
<linearGradient id="paint3_linear_52_115" x1="25.6309" y1="16.7638" x2="22.415" y2="29.6278" gradientUnits="userSpaceOnUse">
<stop stop-color="#FA8E7D"/>
<stop offset="0.512635" stop-color="#F74A5C"/>
<stop offset="1" stop-color="#F51D2C"/>
</linearGradient>
</defs>
</svg>
