<svg width="48" height="48" viewBox="0 0 48 48" fill="none" xmlns="http://www.w3.org/2000/svg">
<path d="M23.9843 42.0004L13.5686 39.1089L11.2476 13.0752H36.7523L34.4287 39.1048L23.9843 42.0004Z" fill="#264DE4"/>
<path d="M32.4396 37.4474L34.4252 15.2039H24V39.7871L32.4396 37.4474Z" fill="#2965F1"/>
<path d="M16.5686 24.8594L16.8548 28.0523H23.9999V24.8594H16.5686Z" fill="#EBEBEB"/>
<path d="M15.9937 18.3968L16.2839 21.5898H24V18.3968H15.9937Z" fill="#EBEBEB"/>
<path d="M23.9998 33.1517L23.9858 33.1555L20.4298 32.1953L20.2025 29.6488H16.9973L17.4446 34.6621L23.9851 36.4778L23.9998 36.4737V33.1517Z" fill="#EBEBEB"/>
<path d="M17.25 6.00037H21.1172V7.61755H18.8672V9.23474H21.1172V10.8519H17.25V6.00037Z" fill="black"/>
<path d="M21.8906 6.00037H25.7578V7.40662H23.5078V7.68787H25.7578V10.9222H21.8906V9.44568H24.1406V9.16443H21.8906V6.00037Z" fill="black"/>
<path d="M26.5312 6.00037H30.3984V7.40662H28.1484V7.68787H30.3984V10.9222H26.5312V9.44568H28.7812V9.16443H26.5312V6.00037Z" fill="black"/>
<path d="M31.4109 24.8594L31.9873 18.3968H23.989V21.5898H28.4882L28.1976 24.8594H23.989V28.0523H27.9207L27.5501 32.1933L23.989 33.1544V36.4763L30.5347 34.6621L30.5827 34.1227L31.333 25.7168L31.4109 24.8594Z" fill="white"/>
</svg>
