<svg width="48" height="48" viewBox="0 0 48 48" fill="none" xmlns="http://www.w3.org/2000/svg">
<path d="M48 24.0002C48 10.744 37.2562 0.000244141 24 0.000244141C10.7438 0.000244141 0 10.744 0 24.0002C0 35.9815 8.775 45.9096 20.25 47.7096V30.9377H14.1562V24.0002H20.25V18.7127C20.25 12.6986 23.8313 9.37524 29.3156 9.37524C31.9406 9.37524 34.6875 9.84399 34.6875 9.84399V15.7502H31.6594C28.6781 15.7502 27.75 17.6018 27.75 19.5002V24.0002H34.4062L33.3422 30.9377H27.75V47.7096C39.225 45.9096 48 35.9815 48 24.0002Z" fill="#1877F2"/>
<path d="M33.3423 30.9377L34.4062 24.0002H27.75V19.5002C27.75 17.6018 28.6782 15.7502 31.6595 15.7502H34.6875V9.84399C34.6875 9.84399 31.9407 9.37524 29.3156 9.37524C23.8314 9.37524 20.2501 12.6986 20.2501 18.7127V24.0002H14.1562V30.9377H20.2501V47.7096C21.4735 47.9018 22.725 48.0002 24 48.0002C25.275 48.0002 26.5266 47.9018 27.75 47.7096V30.9377H33.3423Z" fill="white"/>
</svg>
