<svg width="48" height="48" viewBox="0 0 48 48" fill="none" xmlns="http://www.w3.org/2000/svg">
<g clip-path="url(#clip0_2_9187)">
<path d="M24 24.0009C24 22.4096 24.6321 20.8834 25.7574 19.7582C26.8826 18.633 28.4087 18.0009 30 18.0009C31.5913 18.0009 33.1174 18.633 34.2426 19.7582C35.3679 20.8834 36 22.4096 36 24.0009C36 25.5922 35.3679 27.1183 34.2426 28.2435C33.1174 29.3687 31.5913 30.0009 30 30.0009C28.4087 30.0009 26.8826 29.3687 25.7574 28.2435C24.6321 27.1183 24 25.5922 24 24.0009Z" fill="#1ABCFE"/>
<path d="M12 36.0009C12 34.4096 12.6321 32.8834 13.7574 31.7582C14.8826 30.633 16.4087 30.0009 18 30.0009H24V36.0009C24 37.5922 23.3679 39.1183 22.2426 40.2435C21.1174 41.3687 19.5913 42.0009 18 42.0009C16.4087 42.0009 14.8826 41.3687 13.7574 40.2435C12.6321 39.1183 12 37.5922 12 36.0009V36.0009Z" fill="#0ACF83"/>
<path d="M24 6.00085V18.0009H30C31.5913 18.0009 33.1174 17.3687 34.2426 16.2435C35.3679 15.1183 36 13.5922 36 12.0009C36 10.4096 35.3679 8.88343 34.2426 7.75821C33.1174 6.633 31.5913 6.00085 30 6.00085H24Z" fill="#FF7262"/>
<path d="M12 12.0009C12 13.5922 12.6321 15.1183 13.7574 16.2435C14.8826 17.3687 16.4087 18.0009 18 18.0009H24V6.00085H18C16.4087 6.00085 14.8826 6.633 13.7574 7.75821C12.6321 8.88343 12 10.4096 12 12.0009V12.0009Z" fill="#F24E1E"/>
<path d="M12 24.0009C12 25.5922 12.6321 27.1183 13.7574 28.2435C14.8826 29.3687 16.4087 30.0009 18 30.0009H24V18.0009H18C16.4087 18.0009 14.8826 18.633 13.7574 19.7582C12.6321 20.8834 12 22.4096 12 24.0009V24.0009Z" fill="#A259FF"/>
</g>
<defs>
<clipPath id="clip0_2_9187">
<rect width="24" height="36" fill="white" transform="translate(12 6.00085)"/>
</clipPath>
</defs>
</svg>
