<?xml version="1.0" encoding="UTF-8"?>
<svg version="1.1" viewBox="0 0 1600 1600" width="1280" height="1280" xmlns="http://www.w3.org/2000/svg">
<path transform="translate(774 19.9)" d="m0 0c2.15-6.76e-4 4.31-0.00165 6.46-0.0029 4.48-0.00146 8.96 6.28e-4 13.4 0.00534 5.7 0.00571 11.4 0.0024 17.1-0.00357 4.44-0.00364 8.87-0.00245 13.3 1.28e-4 2.1 6.6e-4 4.2-1.25e-4 6.3-0.00248 33.1-0.029 33.1-0.029 37.4 2.14 1.44 0.192 2.88 0.334 4.32 0.449 1.34 0.11 1.34 0.11 2.71 0.223 0.971 0.0761 1.94 0.152 2.94 0.23 2.05 0.17 4.11 0.34 6.16 0.51 3.24 0.263 6.48 0.525 9.72 0.783 3.13 0.251 6.25 0.51 9.37 0.77 0.959 0.074 1.92 0.148 2.9 0.224 5.51 0.462 10.5 1.38 15.9 2.81 1.83 0.299 3.66 0.563 5.5 0.781 1.46 0.18 1.46 0.18 2.94 0.363 0.989 0.117 1.98 0.235 3 0.355 6.23 0.741 12.3 1.57 18.4 3.01 4.17 0.964 8.4 1.67 12.6 2.43 2.92 0.536 5.69 1.12 8.51 2.06 2.89 0.619 5.79 1.22 8.69 1.81 13.3 2.77 26.3 6.06 39.3 10.2 2.23 0.69 4.46 1.38 6.69 2.06 0.973 0.3 1.95 0.601 2.95 0.91 1.83 0.56 3.66 1.12 5.5 1.66 7.23 2.14 14.4 4.49 21.5 6.87 1.18 0.391 2.37 0.781 3.59 1.18 5.69 1.89 11.3 3.85 16.7 6.32 1.88 0.715 3.77 1.43 5.66 2.13 5.13 1.91 10.2 3.89 15.3 5.87 1.73 0.663 1.73 0.663 3.5 1.34 9.7 3.78 19 8.16 28.4 12.7 2.57 1.22 5.16 2.39 7.76 3.55 7.21 3.26 14.3 6.84 21.3 10.4 1.41 0.721 1.41 0.721 2.86 1.46 36.2 18.5 70.7 39.6 103 63.6 2.55 1.85 5.13 3.67 7.71 5.48 7.2 5.08 14.1 10.5 20.9 16 3 2.48 3 2.48 6.08 4.47v2c0.728 0.245 1.46 0.49 2.21 0.742 3.11 1.4 5.01 3.04 7.48 5.38 3.3 3.06 6.63 5.98 10.2 8.75 8.04 6.34 15.5 13.4 22.7 20.7 1.65 1.65 1.65 1.65 4.41 3.74l2.06 1.69v2c0.531 0.217 1.06 0.433 1.61 0.656 3.28 1.84 5.9 4.31 8.64 6.84 0.554 0.499 1.11 0.998 1.68 1.51 1.4 1.29 2.74 2.63 4.07 3.99v2l1.69 0.625c3.28 1.95 5.02 4.32 7.31 7.38v2c0.959 0.402 0.959 0.402 1.94 0.812 2.06 1.19 2.06 1.19 3.06 4.19 0.855 0.396 0.855 0.396 1.73 0.801 3.31 1.75 5.32 4.53 7.65 7.39 5.09 6.1 10.4 11.9 15.9 17.7 3.35 3.52 6.06 7.07 8.72 11.2 1.43 1.65 2.88 3.28 4.38 4.88 3.84 4.2 7.3 8.52 10.6 13.1 0.935 1.25 1.87 2.5 2.81 3.75 0.739 0.986 0.739 0.986 1.49 1.99 1.27 1.7 2.55 3.39 3.83 5.08 13.9 18.4 13.9 18.4 13.9 21.2h2c1.08 1.47 1.08 1.47 2.25 3.5 2.25 3.78 4.76 7.21 7.52 10.6 1.3 1.96 1.81 3.56 2.23 5.86h2c3 5.75 3 5.75 3 8 0.99 0.33 1.98 0.66 3 1 1.06 1.67 1.06 1.67 2 3.75 1.16 2.49 2.32 4.77 3.75 7.12 1.25 2.13 1.25 2.13 1.25 4.12h2c0.257 0.476 0.513 0.951 0.777 1.44 2.33 4.26 4.75 8.45 7.29 12.6 5.76 9.43 10.9 19.1 15.9 29 0.862 1.66 0.862 1.66 1.74 3.36 3.26 6.37 3.26 6.37 3.26 8.64h2c1.11 2.19 2.21 4.37 3.31 6.56 0.309 0.609 0.617 1.22 0.936 1.85 2.08 4.14 3.96 8.32 5.75 12.6 2.84 6.66 6.03 13.1 9.32 19.6 3.18 6.47 5.57 13 7.72 19.9 0.806 2.69 0.806 2.69 2.96 4.57 0.711 2.03 0.711 2.03 1.38 4.5 1.25 4.38 2.79 8.53 4.52 12.7 1.75 4.39 3.3 8.85 4.88 13.3 1.09 3.06 2.21 6.1 3.35 9.14 1.65 4.51 2.94 9.06 4.16 13.7 1.32 4.85 3 9.57 4.65 14.3 4.12 12.1 7.18 24.3 9.67 36.8 0.661 3.28 1.36 6.41 2.42 9.58 1.19 3.57 1.84 7.18 2.48 10.9 0.67 3.87 1.37 7.62 2.5 11.4 1.31 4.8 1.93 9.62 2.57 14.6 0.248 1.89 0.499 3.79 0.754 5.68 0.108 0.83 0.215 1.66 0.326 2.52 0.169 1.93 0.169 1.93 1.36 2.93 0.286 1.84 0.515 3.68 0.719 5.53 0.128 1.12 0.255 2.24 0.387 3.39 0.263 2.38 0.526 4.77 0.789 7.15 0.128 1.12 0.255 2.24 0.387 3.39 0.114 1.04 0.228 2.07 0.346 3.14 0.124 2.34 0.124 2.34 1.37 3.39 0.29 2.2 0.517 4.4 0.719 6.61 0.0628 0.676 0.126 1.35 0.19 2.05 0.133 1.44 0.264 2.88 0.393 4.33 0.193 2.16 0.392 4.31 0.592 6.47 0.735 7.99 1.36 16 1.84 24-0.0166 2.5-0.0166 2.5 1.26 3.57 0.306 2.6 0.551 5.19 0.754 7.8 0.0654 0.811 0.131 1.62 0.198 2.46 0.211 2.68 0.413 5.37 0.611 8.05 0.0682 0.915 0.136 1.83 0.207 2.77 0.963 13.2 1.52 26.3 1.48 39.5-0.00144 1.09-0.00144 1.09-0.0029 2.2-0.0768 24.8-0.0768 24.8-1.75 31.1-0.557 2.37-0.664 4.55-0.724 6.99-0.0289 0.971-0.0578 1.94-0.0875 2.94-0.0298 1.05-0.0595 2.1-0.0902 3.18-0.442 12.9-1.5 25.7-2.75 38.5-0.351 3.61-0.69 7.21-1.03 10.8-0.219 2.3-0.439 4.6-0.66 6.89-0.101 1.08-0.202 2.15-0.306 3.26-0.145 1.47-0.145 1.47-0.293 2.97-0.0836 0.864-0.167 1.73-0.253 2.62-0.303 1.96-0.303 1.96-1.3 2.96-0.263 1.77-0.468 3.55-0.648 5.33-0.117 1.1-0.233 2.21-0.354 3.34-0.185 1.77-0.185 1.77-0.373 3.58-0.889 8.15-1.87 16-3.94 24-0.759 3.11-1.23 6.19-1.68 9.36-0.756 5.25-1.92 10.3-3.28 15.4-1.03 4.34-1.62 8.72-2.2 13.1-0.524 2.89-1.42 5.2-2.53 7.91-0.661 2.43-1.29 4.86-1.88 7.31-0.171 0.694-0.341 1.39-0.517 2.1-0.718 2.92-1.43 5.84-2.13 8.76-0.343 1.42-0.689 2.85-1.04 4.27-0.475 1.94-0.943 3.89-1.41 5.84-0.726 2.63-1.49 5.03-2.47 7.55-1.82 4.69-3.11 9.5-4.43 14.4-2.28 8.16-4.87 16-8.12 23.8-1.57 3.83-2.89 7.68-4.12 11.6-0.879 2.38-0.879 2.38-2.35 5.26-1.55 3.15-2.56 6.18-3.53 9.55-2.1 7.27-5.16 14-8.38 20.8-2.07 4.41-4.12 8.82-6.12 13.2-4.32 9.53-8.67 19-13.5 28.4-1.08 2.13-1.08 2.13-1.87 4.36-1.73 4.11-3.97 7.91-6.18 11.8-1.05 1.88-2.1 3.75-3.16 5.63-1.11 1.98-2.23 3.96-3.34 5.93-0.556 0.989-1.11 1.98-1.68 3-2.44 4.32-4.89 8.61-7.55 12.8-1.94 3.06-3.56 6.17-5.08 9.46-2.6 5.31-5.68 9.92-9.26 14.6-2.09 2.79-4.01 5.66-5.93 8.57-0.741 1.11-1.48 2.23-2.23 3.34-1.23 1.85-2.47 3.7-3.7 5.55-2.25 3.38-4.51 6.76-6.77 10.1-0.871 1.3-1.74 2.6-2.61 3.91-0.42 0.627-0.84 1.25-1.27 1.9-2.18 3.27-4.31 6.56-6.35 9.91-2.06 3.25-2.06 3.25-3.4 4.58-2.35 2.36-4.28 5.02-6.29 7.67-3.2 4.21-6.45 8.36-9.81 12.4-3.37 4.08-6.67 8.21-9.94 12.4-0.457 0.582-0.914 1.16-1.39 1.77-2.41 3.08-4.81 6.16-7.21 9.25-0.487 0.625-0.974 1.25-1.48 1.9-0.924 1.19-1.85 2.38-2.76 3.57-7.13 9.15-7.13 9.15-11.8 10.7-0.33 0.825-0.66 1.65-1 2.5-0.33 0.825-0.66 1.65-1 2.5-0.99 0.33-1.98 0.66-3 1-0.33 0.66-0.66 1.32-1 2-0.33 0.66-0.66 1.32-1 2-0.99 0.33-1.98 0.66-3 1-0.686 1.32-1.35 2.66-2 4-1.56 2.14-3.21 4.03-5 6h-2c-0.227 0.557-0.454 1.11-0.688 1.69-1.69 2.97-3.84 4.96-6.31 7.31-0.825 0.825-1.65 1.65-2.5 2.5l-7.5 7.5c-0.683 0.695-1.37 1.39-2.07 2.11-3.44 3.48-6.85 6.9-10.6 10-2.41 2-4.39 4.08-6.38 6.5-2.64 3.19-5.48 5.07-8.94 7.38-1.35 1.33-2.69 2.69-4 4.06-4.41 4.54-9.2 8.38-14.2 12.2-2.76 2.11-5.39 4.19-7.79 6.72-12.8 11-12.8 11-16 11-0.33 0.99-0.66 1.98-1 3-1.32 0.685-2.66 1.35-4 2-0.567 0.581-1.13 1.16-1.72 1.76-2.76 2.71-5.81 4.9-8.97 7.11-0.624 0.441-1.25 0.883-1.89 1.34-4.06 2.86-8.15 5.65-12.3 8.37-2.3 1.53-4.55 3.13-6.81 4.73-5.24 3.69-10.6 7.14-16 10.6-2.23 1.43-4.41 2.88-6.59 4.38-2.7 1.73-2.7 1.73-4.7 1.73v2c-0.766 0.42-0.766 0.42-1.55 0.848-6.55 3.61-13 7.37-19.5 11.2-6.31 3.7-12.6 7.38-19 10.9-2.15 1.18-4.28 2.39-6.42 3.59-9.61 5.33-19.6 9.9-29.6 14.5-0.912 0.421-1.82 0.842-2.76 1.28-32.7 15.1-32.7 15.1-43.4 19-2.19 0.813-4.35 1.68-6.51 2.55-6.08 2.44-12.2 4.79-18.3 7.12-0.721 0.278-1.44 0.557-2.18 0.844-4.97 1.9-10 3.56-15.1 5.19-2.66 0.853-2.66 0.853-4.66 2.02-5.39 2.44-11.7 2.12-17.5 2.13-0.712 0.0122-1.42 0.0245-2.16 0.0371-10.4 0.0282-19.4-3.3-27.1-10.3-4.27-4.52-7.14-10.2-9.31-15.9 0.33-0.66 0.66-1.32 1-2h-2c-1.01-3.35-1.12-6.39-1.11-9.88 1.1e-4 -1.81 1.1e-4 -1.81 2.23e-4 -3.66 0.00514-1.34 0.0104-2.67 0.0156-4.01 0.00189-1.41 0.00333-2.83 0.00434-4.24 0.00312-3.06 0.00936-6.12 0.018-9.18 0.0137-4.91 0.0203-9.81 0.0257-14.7 0.00826-6.99 0.0193-14 0.0319-21 0.0318-18 0.0385-36.1 0.0412-54.1 2.43e-4 -1.33 2.43e-4 -1.33 4.92e-4 -2.68 0.00459-28.2-0.0391-56.4-0.371-84.6-0.0276-2.43-0.0517-4.85-0.0749-7.28-0.223-22.6-1.48-45.1-3.58-67.6h-1l-0.586-3.51c-0.263-1.54-0.526-3.08-0.789-4.62-0.189-1.14-0.189-1.14-0.383-2.3-0.751-4.36-1.76-8.39-3.24-12.6-0.47-1.75-0.929-3.5-1.38-5.25-6.13-22.5-19.4-46.5-36.5-62.4-2.12-2.31-2.12-2.31-2.12-6.31 1.23-0.121 1.23-0.121 2.48-0.244 3.72-0.37 7.43-0.751 11.1-1.13 1.29-0.126 2.57-0.253 3.89-0.383 1.24-0.129 2.49-0.258 3.77-0.391 1.14-0.115 2.28-0.23 3.46-0.349 3.27-0.505 6.13-1.42 9.25-2.5 2.63-0.371 5.23-0.684 7.88-0.938 8.48-0.905 16.8-2.38 25.1-4.06 0.768-0.151 1.54-0.302 2.33-0.458 26.5-5.24 52.8-11.8 77.7-22.5 1.62-0.652 3.25-1.3 4.88-1.94 15.9-6.36 31.1-13.7 46.1-22.1 0.708-0.384 1.42-0.768 2.14-1.16 4.89-2.67 9.69-5.49 14.5-8.34 0.932-0.552 0.932-0.552 1.88-1.11 3.22-1.93 6.3-3.94 9.33-6.17 3.16-2.22 3.16-2.22 5.16-2.22v-2c1.39-0.971 2.79-1.93 4.22-2.84 3.09-2.01 5.95-4.32 8.84-6.6 0.599-0.465 1.2-0.929 1.81-1.41 3.62-2.85 6.9-5.85 10.1-9.15 1.47-1.32 2.95-2.64 4.44-3.94 13.3-11.8 13.3-11.8 24.4-25.5 1.11-1.55 1.11-1.55 2.51-2.93 2.12-2.15 3.83-4.5 5.61-6.94 0.681-0.924 1.36-1.85 2.06-2.8 1.93-2.87 3.42-5.79 4.94-8.89l3-3c1.03-1.98 2.03-3.98 3-6 0.436-0.722 0.871-1.44 1.32-2.19 5.9-9.88 11.1-20.2 15.7-30.8 0.284-0.641 0.567-1.28 0.859-1.94 1.57-3.57 2.94-7.2 4.31-10.9 0.819-2.16 1.66-4.32 2.52-6.47 3.5-8.81 6.78-17.6 9.32-26.7 0.387-1.39 0.387-1.39 0.781-2.8 6.12-22 12.3-44.5 14-67.5 0.211-1.75 0.211-1.75 1.21-3.75 0.282-2.07 0.513-4.15 0.719-6.23 0.128-1.28 0.255-2.56 0.387-3.88 0.0649-0.672 0.13-1.34 0.197-2.04 0.193-1.99 0.392-3.98 0.592-5.97 1.35-13.7 2.26-27.3 2.31-41.1 0.00855-1.96 0.00855-1.96 0.0173-3.96 0.0104-2.75 0.0163-5.51 0.0198-8.26 0.00435-2.76 0.0181-5.51 0.041-8.26 0.157-19.3-0.865-38.1-3.28-57.3-0.158-1.28-0.158-1.28-0.32-2.58-0.224-1.81-0.452-3.61-0.68-5.42h-1c-0.182-1.08-0.364-2.15-0.551-3.26-1.93-11.3-3.96-22.5-7.65-33.4-0.775-2.29-1.52-4.59-2.26-6.9-0.243-0.747-0.486-1.49-0.736-2.26-0.492-1.51-0.979-3.02-1.46-4.54-1.45-4.43-3.17-8.53-5.32-12.7-1.73-3.37-3.24-6.83-4.77-10.3-0.316-0.702-0.632-1.4-0.957-2.13-1.33-3.01-2.29-5.23-2.29-8.56h-2c-0.322-0.604-0.643-1.21-0.975-1.83-8.81-16.5-8.81-16.5-19-32.2-1-1.41-1-1.41-2.02-2.84-1.97-2.74-3.96-5.45-5.98-8.16-0.862-1.16-0.862-1.16-1.74-2.34-3.84-5.04-7.95-9.75-12.2-14.4-0.665-0.746-1.33-1.49-2.02-2.26-0.603-0.654-1.21-1.31-1.83-1.98-1.17-2.02-1.17-2.02-0.945-4.46 0.255-0.843 0.51-1.69 0.773-2.55 0.214-0.802 0.428-1.6 0.648-2.43 0.24-0.807 0.48-1.61 0.727-2.45 0.235-0.802 0.469-1.6 0.711-2.43 0.914-2.7 0.914-2.7 2.42-6.05 1.53-3.74 2.34-7.18 3.06-11.1 0.661-3.62 1.32-7.12 2.38-10.6 4.36-16 4.55-32.5 4.43-49-0.00266-1.06-0.00532-2.13-0.00806-3.22-0.048-16.4-0.744-32.5-3.37-48.7h-1c-0.219-1.27-0.438-2.54-0.664-3.86-2.86-16.1-6.91-31.7-12.3-47.1-0.865-2.49-1.69-4.98-2.5-7.48-0.52-1.57-1.04-3.13-1.56-4.7-0.237-0.748-0.474-1.5-0.719-2.27-1.32-3.97-1.32-3.97-4.03-7.04-13.8-3.49-28.4-1.81-42.2 0.305-1.14 0.174-2.28 0.347-3.45 0.526-6.1 0.895-6.1 0.895-11.5 3.6-2.39 0.701-4.77 1.34-7.19 1.94-5.43 1.39-10.6 2.95-15.8 5.06-0.786 0.308-1.57 0.616-2.38 0.934-3.98 1.56-7.91 3.18-11.8 4.94-3.97 1.79-8.01 3.4-12.1 5-7.04 2.78-13.9 5.9-20.8 9.12-5.34 2.49-10.6 4.6-16.2 6.19-0.578 0.267-1.16 0.534-1.75 0.809-0.33 0.99-0.66 1.98-1 3-1.97 0.957-1.97 0.957-4.5 1.81-3.79 1.4-6.89 2.98-10.2 5.31-3.73 2.63-6.86 3.93-11.3 4.88v2c-1.16 0.557-2.31 1.11-3.5 1.69-3.52 1.76-6.85 3.71-10.2 5.83-4.03 2.57-8.12 5.05-12.2 7.55-2.63 1.62-5.23 3.27-7.82 4.94-3.31 2-3.31 2-5.31 2-0.33 0.99-0.66 1.98-1 3-7.78 2.59-15.3 0.203-23-1.75-1.11-0.273-2.21-0.546-3.35-0.827-4.81-1.19-9.62-2.41-14.4-3.64-6.84-1.75-13.6-3.28-20.6-4.36-2.31-0.372-4.55-0.829-6.83-1.36-20.3-4.63-41.1-6.66-61.8-8.69-1.25-0.123-2.5-0.246-3.79-0.373-15.9-1.51-31.6-2.16-47.5-2.17-1.94-0.00323-3.88-0.00659-5.81-0.0101-4.05-0.00595-8.1-0.00784-12.2-0.00725-4.08 8.07e-5 -8.16-0.00678-12.2-0.0205-20-0.0662-39.9-0.0794-59.8 1.16-0.707 0.0432-1.41 0.0864-2.14 0.131-6.71-0.217-6.71-0.217-12.5 1.92-1.67 0.204-3.35 0.348-5.03 0.465-1.04 0.078-2.08 0.156-3.15 0.236-2.18 0.155-4.36 0.309-6.55 0.461-5.43 0.411-10.6 1.02-15.9 2.31-6.28 1.39-12.7 2.06-19.1 2.94-6.9 0.983-13.6 2.26-20.4 3.9-3.51 0.834-7.03 1.51-10.6 2.16-2.42 0.511-2.42 0.511-5.11 1.46-3.63 1.21-7.3 2.16-11 3.07-0.706 0.174-1.41 0.347-2.14 0.526-1.39 0.341-2.78 0.681-4.18 1.02-1.56 0.379-3.11 0.767-4.67 1.16-1.12 0.271-1.12 0.271-2.27 0.547-0.915 0.224-0.915 0.224-1.85 0.453-8.06 1.15-12.2-1.03-18.9-5.27-0.889-0.55-1.78-1.1-2.69-1.67-5.23-3.26-10.3-6.64-15.3-10.3-6.97-4.92-14.5-8.83-22.1-12.5v-2c-1.15-0.33-2.31-0.66-3.5-1-8.82-2.93-17.2-7.51-25.3-12.2-2.91-1.65-5.75-2.81-8.9-3.93-2.85-1.1-5.58-2.4-8.34-3.71-5.68-2.66-11.4-4.92-17.3-7.07-4.3-1.58-8.48-3.29-12.6-5.19-29.2-13.2-62.1-22.1-94-15.9l-0.516 1.77c-1.39 4.71-2.85 9.39-4.42 14-2.14 6.36-4.12 12.8-6.06 19.2-0.339 1.09-0.339 1.09-0.685 2.19-11.3 36.8-16.8 78.4-11.3 117l1 1c0.273 1.5 0.491 3.01 0.684 4.52 0.185 1.38 0.185 1.38 0.373 2.79 0.252 1.95 0.502 3.89 0.75 5.84l0.377 2.81c0.109 0.847 0.218 1.69 0.33 2.57 0.525 2.68 1.44 4.97 2.49 7.48 0.654 2.56 1.28 5.12 1.88 7.69 1.13 4.78 2.38 9.25 4.38 13.8 1.92 4.53 2.86 8.68 1.75 13.6-2 2.44-2 2.44-5 5-2.13 2.63-4.18 5.3-6.23 7.99-0.584 0.664-1.17 1.33-1.77 2.01h-2c-0.268 0.726-0.536 1.45-0.812 2.2-1.17 2.77-2.53 5.11-4.19 7.61l-1.56 2.39c-0.712 0.888-0.712 0.888-1.44 1.79h-2c-0.264 0.73-0.527 1.46-0.799 2.21-1.21 2.81-2.61 4.95-4.42 7.4-3.81 5.33-7.09 10.9-10.3 16.6-0.565 1.01-1.13 2.01-1.71 3.05-4.32 7.77-8.23 15.6-11.8 23.8l-1.54 3.36c-4.04 8.99-6.99 18.2-9.84 27.6-0.536 1.74-1.12 3.46-1.7 5.19-0.996 3.07-1.73 6.13-2.42 9.28-0.764 3.4-1.55 6.72-2.56 10.1-1.22 4.55-1.83 9.14-2.47 13.8-0.465 2.7-0.465 2.7-1.46 3.7-0.288 1.83-0.516 3.67-0.719 5.51l-0.387 3.49-0.395 3.69-0.395 3.53c-1.5 13.7-2.31 27.4-2.29 41.2-3.93e-4 0.753-7.86e-4 1.51-0.00119 2.28 0.00809 13.2 0.468 26.4 1.13 39.5 0.0435 0.89 0.087 1.78 0.132 2.7 0.125 2.51 0.258 5.02 0.396 7.53 0.0386 0.756 0.0772 1.51 0.117 2.29-0.085 3.44-0.085 3.44 1.42 6.29 0.277 2.1 0.493 4.2 0.684 6.31 0.185 1.96 0.185 1.96 0.373 3.96 0.19 2.07 0.378 4.15 0.566 6.22 0.659 7.23 1.38 14.4 2.93 21.5 0.585 2.71 0.952 5.44 1.32 8.18 0.972 6.52 2.52 12.8 4.18 19.2 0.752 2.93 1.44 5.85 2.07 8.8 0.771 3.41 1.73 6.58 2.88 9.88 0.442 1.48 0.879 2.96 1.31 4.44 2.07 6.91 4.33 13.7 6.69 20.6 0.242 0.702 0.484 1.4 0.733 2.13 6.36 18.3 14 36.1 23 53.3 2.29 4.4 2.29 4.4 2.29 6.59 0.99 0.33 1.98 0.66 3 1 1.06 1.97 2.04 3.98 3 6 3.61 6.25 7.8 12.1 12 18 0.951 1.36 0.951 1.36 1.92 2.74 5.21 7.22 11 13.6 17.2 20 0.631 0.654 1.26 1.31 1.91 1.98 0.571 0.583 1.14 1.17 1.73 1.77 1.23 1.51 1.23 1.51 1.23 3.51l1.79 0.805c2.27 1.23 3.78 2.51 5.61 4.32 0.955 0.929 0.955 0.929 1.93 1.88 0.675 0.66 1.35 1.32 2.05 2 7.11 6.79 14.5 12.6 22.6 18 1.25 0.849 2.5 1.7 3.75 2.55 19.5 13.2 39.8 24.9 61.2 34.4 1.96 0.895 3.92 1.79 5.88 2.69 1.71 0.774 3.42 1.54 5.12 2.31 0.649 0.3 1.3 0.6 1.97 0.908 5.6 2.55 11.3 4.67 17.1 6.65 1.7 0.584 3.4 1.17 5.1 1.75 1.22 0.422 1.22 0.422 2.47 0.852 2.21 0.778 4.41 1.59 6.6 2.42 11 4.17 22.3 6.77 33.8 9 1.36 0.263 1.36 0.263 2.74 0.531 0.79 0.147 1.58 0.294 2.39 0.445 1.79 0.43 1.79 0.43 2.79 1.43 3.53 0.633 7.05 1.19 10.6 1.72 4.48 0.705 8.81 1.62 13.2 2.78 6.4 1.65 12.8 2.44 19.3 3.12 2.21 0.239 4.42 0.481 6.63 0.727 0.961 0.101 1.92 0.203 2.91 0.307 2.33 0.341 2.33 0.341 4.33 1.34 1.45 0.195 2.9 0.343 4.36 0.465 0.869 0.078 1.74 0.156 2.63 0.236 1.82 0.156 3.65 0.31 5.47 0.461 4.79 0.435 9.02 1.05 13.5 2.84-1.68 5.96-6.23 10.3-10.6 14.5-5.82 5.93-10.2 13.4-14.4 20.5-0.505 0.83-1.01 1.66-1.53 2.52-7.99 13.9-13.2 29.8-17 45.2-0.222 0.869-0.444 1.74-0.673 2.63-1.25 5.04-2.08 9.89-2.58 15.1-0.697 4.99-0.697 4.99-2.73 7.36-4.28 2.91-9.28 4.26-14.3 5.53-2.45 0.64-2.45 0.64-5.2 2.68-2.13 0.556-4.28 1.05-6.44 1.5-4.37 0.851-4.37 0.851-8.46 2.5-2.32 1.11-4.25 1.47-6.79 1.82-0.88 0.124-1.76 0.249-2.67 0.377-1.37 0.183-1.37 0.183-2.76 0.369-1.82 0.248-3.63 0.499-5.45 0.754-1.2 0.162-1.2 0.162-2.43 0.326-2.06 0.271-2.06 0.271-4 1.36-31.5 4.06-64.7 5.47-93.9-8.05-3-1.38-6.03-2.66-9.07-3.95v-2l-3.19-0.75c-3.69-0.869-5.92-2.84-8.81-5.25-1.68-1.22-3.37-2.42-5.06-3.62-8.37-6.08-16.6-12.3-23.2-20.3-1.87-2.25-3.87-4.34-5.88-6.46-9.24-10.3-16.6-22-23.7-33.8-3.29-5.44-6.76-10.7-10.4-15.9-0.471-0.683-0.942-1.37-1.43-2.07-2.91-4.11-6.07-7.67-9.71-11.1-1.64-1.62-3.1-3.32-4.55-5.1-8.36-9.88-19.6-17.1-30.5-23.9-2.34-1.48-4.59-3.05-6.85-4.65-9.38-6.27-20.1-10.3-30.7-14-1.87-0.645-3.73-1.34-5.55-2.11-8.69-3.28-18.5-3.13-27.7-3.18-1.36-0.0138-1.36-0.0138-2.76-0.0278-9.36 0.0424-17 1.29-25 6.28h-2c-1.74 7.29-0.837 11.9 3.06 18.3 5.09 7.2 10.7 12.8 17.9 17.7v2l2.23 0.82c2.66 1.13 4.79 2.41 7.15 4.05 2.64 1.81 5.17 3.42 8 4.94 14.9 8.41 28.3 23.1 37.6 37.2 1.21 1.71 2.41 3.42 3.62 5.12 2.67 3.83 5.27 7.69 7.83 11.6 1.09 1.61 2.21 3.19 3.37 4.75 3.91 5.32 6.55 10.1 8.18 16.5h2c3.6 7.02 7.14 14 9.97 21.4 1.27 3.24 2.65 6.43 4.03 9.62 1.74 4.02 3.42 8.04 5 12.1 8.5 21.3 22 41.6 41 54.9 0.836 0.594 0.836 0.594 1.69 1.2 18.1 12.9 36.4 23.5 58.2 28.3 2.35 0.565 4.66 1.26 6.98 1.94 6.96 1.92 14 2.88 21.2 3.86 2.3 0.316 4.59 0.644 6.88 0.974 1.5 0.212 3.01 0.423 4.51 0.633 0.664 0.0948 1.33 0.19 2.01 0.287 11.6 1.57 23.1 1.95 34.7 1.93 1.41 6.76e-4 2.82 0.00165 4.23 0.0029 2.93 0.00146 5.85-6.24e-4 8.78-0.00534 3.75-0.00575 7.51-0.00237 11.3 0.00357 2.9 0.0036 5.8 0.00247 8.7-1.28e-4 1.39-6.67e-4 2.77 1.5e-4 4.16 0.00248 1.92 0.00253 3.85-0.00201 5.77-0.0069 1.09-7.96e-4 2.19-0.00159 3.31-0.00241 2.57 0.0475 2.57 0.0475 4.58-1.13 1.93-0.279 3.87-0.511 5.81-0.719 1.16-0.128 2.32-0.255 3.51-0.387 2.45-0.263 4.91-0.526 7.36-0.789 1.16-0.128 2.32-0.255 3.51-0.387 1.07-0.114 2.13-0.228 3.23-0.346 2.56-0.232 2.56-0.232 4.58-1.37 1.54-0.0695 3.08-0.0845 4.62-0.0625 0.817 0.00902 1.63 0.018 2.48 0.0273 0.626 0.0116 1.25 0.0232 1.9 0.0352 1.48 4.66 2.25 8.6 2.27 13.5 0.00998 1.27 0.02 2.54 0.0302 3.85 8.96e-4 1.39 0.00156 2.78 0.00201 4.17 0.00763 1.48 0.0161 2.96 0.0252 4.44 0.0219 4 0.0307 8.01 0.0358 12 0.00365 2.51 0.0099 5.01 0.017 7.52 0.0245 8.76 0.0375 17.5 0.0411 26.3 0.00363 8.14 0.0335 16.3 0.0754 24.4 0.0348 7.01 0.0501 14 0.0508 21 7.9e-4 4.18 0.00939 8.36 0.038 12.5 0.0263 3.93 0.0283 7.87 0.0123 11.8-0.0018 1.43 0.00476 2.87 0.0208 4.3 0.111 10.5-1.39 20-8.06 28.5-8.78 8.78-17.1 12.6-29.7 12.8-10.2-0.0125-18.3-1.37-27.9-5.19-7.67-2.99-15.4-5.86-23.1-8.61-4.57-1.63-9.14-3.28-13.7-4.95-0.776-0.281-1.55-0.562-2.35-0.851-7.46-2.73-14.6-5.94-21.7-9.53-5.21-2.57-10.5-4.88-15.8-7.26-6.18-2.79-12.3-5.73-18.3-8.8-1.24-0.616-2.48-1.23-3.72-1.84-5.82-2.89-11.6-5.82-17.2-9.02-3.29-1.83-6.66-3.47-10-5.13v-2l-3.12-0.75c-3.1-0.888-5.39-2.15-8.02-4.05-2.48-1.6-5.08-2.84-7.73-4.14-4.37-2.14-8.52-4.42-12.6-7.08-1.57-1.05-1.57-1.05-3.52-1.98v-2l-2-0.625c-3.38-1.55-5.96-3.53-8.84-5.84-2.2-1.65-2.2-1.65-5.06-2.97-3.19-1.61-5.87-3.47-8.72-5.62-3.04-2.29-5.9-4.36-9.38-5.94v-2l-2.67-0.738c-3.58-1.36-5.7-2.95-8.58-5.45-4.47-3.8-9.05-7.18-13.9-10.4l-1.8-1.41v-2c-0.837-0.373-0.837-0.373-1.69-0.754-2.7-1.46-4.88-3.23-7.25-5.18-3.23-2.67-6.45-4.94-10.1-7.06-1.02-0.98-2.02-1.98-3-3l-3-2v-2c-0.726-0.232-1.45-0.464-2.2-0.703-3.32-1.53-5.12-3.39-7.61-6.05-3.61-3.73-7.22-6.93-11.4-9.95-3.22-2.39-6.06-4.86-7.82-8.49-1.21-2.34-2.54-2.85-4.94-3.81v-2c-0.698-0.21-1.4-0.42-2.12-0.636-3.7-1.75-6.21-4.3-9.03-7.18-0.576-0.577-1.15-1.15-1.74-1.75-1.22-1.22-2.43-2.45-3.64-3.68-1.83-1.86-3.66-3.7-5.5-5.55-5.86-5.9-11.6-11.8-17-18.2-1.09-1.27-2.19-2.55-3.28-3.82-1.61-1.87-3.22-3.75-4.82-5.63-3.31-3.84-6.74-7.47-10.4-11-5.45-5.39-9.93-11.4-14.4-17.6-3.08-4.15-6.4-8.08-9.73-12-12.1-14.4-23.2-29.5-33.6-45.2-3.41-5.13-6.9-10.2-10.4-15.3-6.33-9.15-12.3-18.5-18-28.1-0.336-0.569-0.673-1.14-1.02-1.72-5.33-9.02-10.5-18.1-15.6-27.3-0.611-1.1-1.22-2.2-1.85-3.33-9.96-18-9.96-18-9.96-22.1h-2l-1.14-2.69c-3.57-8.31-7.35-16.5-11.3-24.6-7.28-15.1-13.6-30.3-19-46.2-1.21-3.56-2.5-7.09-3.84-10.6-1.54-4.1-2.98-8.23-4.45-12.4-0.769-2.14-1.55-4.28-2.37-6.41-2.27-5.94-3.83-11.8-5.18-18-0.794-3.39-1.87-6.59-3.03-9.87-1.02-3.26-1.59-6.57-2.16-9.93-0.548-2.35-1.45-4.11-2.53-6.26-0.611-2.03-1.17-4.07-1.69-6.12l-0.824-3.2c-0.488-2.68-0.488-2.68 0.512-4.68h-2c-0.111-0.559-0.221-1.12-0.335-1.69-0.512-2.58-1.03-5.16-1.54-7.74l-0.527-2.66c-0.826-4.15-1.68-8.28-2.63-12.4-1.12-4.98-1.87-10-2.59-15.1l-0.406-2.77c-0.326-2.22-0.649-4.45-0.969-6.67h-1c-0.116-0.934-0.232-1.87-0.351-2.83-0.431-3.45-0.865-6.91-1.3-10.4-0.189-1.5-0.376-2.99-0.562-4.49-0.267-2.15-0.539-4.29-0.812-6.44-0.162-1.29-0.325-2.59-0.492-3.92-0.165-2.84-0.165-2.84-1.48-3.96-0.363-2.98-0.669-5.94-0.938-8.93-0.085-0.899-0.17-1.8-0.258-2.72-0.273-2.89-0.539-5.77-0.805-8.66-0.266-2.88-0.534-5.75-0.805-8.63-0.169-1.79-0.335-3.59-0.498-5.38-0.0768-0.817-0.154-1.63-0.233-2.48-0.0658-0.716-0.132-1.43-0.199-2.17-0.27-2.07-0.753-4.01-1.27-6.03-0.0683-1.58-0.0849-3.17-0.0625-4.75 0.00773-0.939 0.0155-1.88 0.0234-2.85 0.0253-1.92 0.0513-3.83 0.0781-5.75 0.0492-6.09-0.161-12.1-0.531-18.2-0.675-11.5-0.658-23-0.638-34.5 0.00538-3.64 1.17e-5 -7.28-0.00635-10.9-0.0105-32.6-0.0105-32.6 2.14-39h-2l0.5-1.52c0.68-3.37 0.566-6.68 0.5-10.1-0.135-7.11-0.135-7.11 1-9.38 0.344-2.97 0.64-5.94 0.902-8.92 0.17-1.83 0.34-3.66 0.51-5.49 0.263-2.89 0.525-5.77 0.783-8.66 0.251-2.78 0.51-5.57 0.77-8.35 0.074-0.854 0.148-1.71 0.224-2.59 0.461-4.89 1.38-9.28 2.81-14 0.296-1.82 0.547-3.64 0.746-5.48 0.114-0.994 0.227-1.99 0.344-3.01 0.115-1.03 0.229-2.07 0.347-3.14 0.896-7.65 1.96-15 3.88-22.5 1.02-4.3 1.59-8.64 2.16-13 0.527-2.88 0.527-2.88 1.49-5.22 1.42-3.64 1.93-7.31 2.54-11.2 0.753-4.79 1.61-9.01 3.5-13.5 0.66-2.46 1.28-4.9 1.88-7.38 0.349-1.42 0.7-2.85 1.05-4.27 0.266-1.08 0.266-1.08 0.538-2.19 3.94-15.9 3.94-15.9 6.16-21.5 1.06-2.8 1.78-5.22 2.38-8.12 0.76-3.67 1.85-7.01 3.22-10.5 0.785-2.03 1.48-4.07 2.15-6.13 4.76-14.4 10.3-28.6 15.8-42.8 0.689-1.77 1.37-3.53 2.05-5.3 1.63-4.2 3.38-7.95 5.76-11.8 1.42-3.16 2.74-6.34 4.02-9.55 3.24-8 7-15.7 10.9-23.4 1.07-2.11 2.13-4.23 3.18-6.36 3.11-6.27 6.25-12.5 9.72-18.6 2.29-4.28 4.21-8.73 6.16-13.2h2c0.266-0.875 0.531-1.75 0.805-2.65 1.16-3.26 2.55-5.94 4.32-8.91l1.88-3.16c4.98-8.2 10-16.4 15.2-24.4 5.71-8.75 5.71-8.75 10.8-17.8h2c0.248-0.887 0.495-1.77 0.75-2.69 1.34-3.54 2.86-5.39 5.25-8.31 2.11-2.85 4.18-5.74 6.25-8.62 1.16-1.61 2.32-3.22 3.48-4.83l1.7-2.36c2.64-3.66 5.31-7.29 7.99-10.9 1.64-2.26 1.64-2.26 3.05-4.8 1.61-2.56 3.37-4.36 5.54-6.46 1.33-1.57 2.64-3.15 3.94-4.75 0.786-0.968 1.57-1.94 2.38-2.93 1.39-1.72 2.78-3.44 4.17-5.16 5.93-7.34 11.9-14.7 18-21.8 0.48-0.564 0.96-1.13 1.45-1.71 2.88-3.35 5.91-6.5 9.05-9.6 0.996-1.11 1.98-2.23 2.94-3.38 0.507-0.596 1.01-1.19 1.54-1.8 0.995-1.19 1.98-2.38 2.96-3.58 3.27-3.95 6.78-7.3 10.7-10.6 1.92-1.65 1.92-1.65 3.45-3.88 0.686-0.888 0.686-0.888 1.39-1.79h2c0.254-0.593 0.508-1.19 0.77-1.8 1.37-2.45 2.75-3.7 4.92-5.45 2.89-2.44 5.39-4.91 7.81-7.81 2.9-3.43 6-5.97 9.65-8.57 2.55-1.88 4.67-4.07 6.85-6.37 3.23-3.32 6.58-6.5 10-9.62 1.24-1.13 1.24-1.13 2.5-2.29 2.5-2.09 2.5-2.09 5.06-3.61 2.59-1.57 4.34-3.3 6.44-5.48 1.79-1.57 3.61-3.11 5.44-4.62 1.39-1.16 1.39-1.16 2.81-2.35 2.75-2.02 2.75-2.02 5.48-3.05 2.87-1.23 2.96-2.23 4.28-4.98 2.47-2.11 2.47-2.11 5.5-4.31 0.541-0.395 1.08-0.791 1.64-1.2 3.95-2.87 7.94-5.69 11.9-8.47 4.64-3.22 9.24-6.49 13.8-9.76 3.14-2.22 6.27-4.42 9.48-6.53 2.52-1.57 2.52-1.57 4.14-3.3 1.92-1.92 4.1-3.05 6.44-4.44 2.77-1.78 5.53-3.58 8.28-5.38 2.72-1.62 2.72-1.62 5.38-2.65 2.49-1.03 3.5-2.06 5.34-3.97 11.9-7.98 24.7-14.7 37.3-21.5 2.29-1.25 4.57-2.51 6.84-3.77 5.33-2.96 10.7-5.91 16-8.84l2.88-1.59c4.92-2.7 9.8-5.17 15-7.29 1.79-0.806 3.59-1.62 5.38-2.44 4.13-1.88 8.27-3.75 12.4-5.58 1.56-0.693 3.11-1.4 4.66-2.12 0.799-0.367 1.6-0.735 2.42-1.11 1.08-0.503 1.08-0.503 2.18-1.02 1.95-0.734 1.95-0.734 4.95-0.734v-2c6.56-2.76 13.2-5.13 20-7.25 2.92-0.937 4.8-1.55 7-3.75 2.1-0.746 2.1-0.746 4.62-1.44 5.77-1.65 11.3-3.74 16.9-5.94 10.3-3.84 20.9-6.76 31.4-9.73 3.29-0.954 6.53-2.02 9.78-3.12 8.62-2.9 17.2-5.31 26.1-7.07 3.18-0.651 3.18-0.651 6.16-1.71 3.34-1.11 6.63-1.79 10.1-2.44 4.86-0.934 9.68-1.96 14.5-3.12 5.87-1.39 11.8-2.26 17.7-3.01 2.61-0.144 2.61-0.144 3.7-1.43 2.12-0.359 4.24-0.66 6.37-0.938 1.3-0.173 2.59-0.345 3.93-0.523 1.38-0.18 2.76-0.36 4.14-0.539 2.69-0.35 5.37-0.705 8.06-1.06 1.2-0.156 2.4-0.312 3.63-0.473 2.81-0.307 2.81-0.307 4.87-1.46 2.08-0.282 4.17-0.513 6.27-0.719 1.28-0.128 2.57-0.255 3.89-0.387 0.674-0.0649 1.35-0.13 2.04-0.197 2-0.193 4-0.393 6-0.592 7.69-0.756 15.4-1.38 23.1-1.84 2.67-0.0973 2.67-0.0973 4.7-1.26 2.74-0.241 5.45-0.422 8.19-0.554 1.27-0.0632 1.27-0.0632 2.56-0.128 10.4-0.474 20.8-0.463 31.2-0.451zm-41.9 2.13v1h5v-1h-5zm130 0 4 1zm383 441v15h1v-15h-1zm-1223 165 1 2zm-1 5 1 2zm-4 17 1 2zm-5 26 1 3zm-5 31 1 4zm-1 10 1 2zm-4 33v9h1v-9h-1zm1308 26v6h1v-6h-1zm-6 86 1 3zm-1287 124 1 3zm981 315v6h1v-6h-1zm1 243 1 3z" fill="#FCFCFC"/>
<path transform="translate(997,1390)" d="m0 0h1v95h-1v-95z" fill="#FDFDFD"/>
<path transform="translate(291,832)" d="m0 0h1v6h-1v-6z" fill="#000100"/>
<path transform="translate(354,489)" d="m0 0h1v5h-1v-5z" fill="#000100"/>
<path transform="translate(289,794)" d="m0 0 1 4z" fill="#000100"/>
<path transform="translate(1596,751)" d="m0 0 1 4z" fill="#000100"/>
<path transform="translate(355,500)" d="m0 0 1 4z" fill="#000100"/>
<path transform="translate(720,409)" d="m0 0c3 1 3 1 3 1z" fill="#000100"/>
</svg>
