<svg width="48" height="48" viewBox="0 0 48 48" fill="none" xmlns="http://www.w3.org/2000/svg">
<path d="M24.961 13.1988V21.8374C24.961 22.3701 25.393 22.8021 25.9257 22.8021H34.5643C34.5643 20.1529 33.974 17.2734 32.2318 15.5313C30.4897 13.7891 27.6102 13.1988 24.961 13.1988Z" fill="#00832D"/>
<path d="M34.3771 41.8214C30.3458 42.4837 25.4649 41.2887 20.7857 38.4955L22.3551 34.9969L25.9113 33.3556L31.4832 36.5374L34.3771 41.8214Z" fill="#00832D"/>
<path d="M6.41684 13.8611C5.75455 17.8925 6.93516 22.7733 9.7427 27.4525L13.3421 25.768L14.8827 22.3126L11.8592 17.3742L6.41684 13.8611Z" fill="#00832D"/>
<path d="M26.4007 6C25.6088 6 24.9609 6.64789 24.9609 7.43977V13.1988C30.2593 13.1988 34.5642 17.5037 34.5642 22.8021H40.3232C41.1151 22.8021 41.763 22.1542 41.763 21.3623C41.763 12.8821 34.8809 6 26.4007 6Z" fill="#34A853"/>
<path d="M40.3952 38.5099C41.1583 37.7756 41.1871 36.5806 40.4672 35.8176L33.5275 28.4172C32.7645 27.6973 31.5839 27.7117 30.8496 28.446L25.9256 33.3556L34.377 41.807C36.6662 41.4758 38.3796 40.4968 39.9345 38.9418L40.3952 38.5099Z" fill="#34A853"/>
<path d="M9.757 27.4525C11.024 29.5546 12.7085 31.671 14.6234 33.5859C16.5383 35.5008 18.698 37.2141 20.8 38.4811L25.94 33.3556L14.8826 22.3125" fill="#34A853"/>
<path d="M18.5828 18.7275L19.3746 17.9645C20.3105 17.0286 20.3105 15.4881 19.3746 14.5522L12.8525 8.03007C11.9167 7.09422 10.3761 7.09422 9.44026 8.03007L9.20989 8.18844C7.69814 9.7002 6.79109 11.6583 6.41675 13.8611L14.8826 22.3125L18.5828 18.7275Z" fill="#34A853"/>
</svg>
