<svg width="48" height="48" viewBox="0 0 48 48" fill="none" xmlns="http://www.w3.org/2000/svg">
<path d="M24.3202 14.1867C27.3246 14.1867 29.3513 15.4845 30.5069 16.5689L35.0224 12.16C32.2491 9.58225 28.6402 8.00003 24.3202 8.00003C18.0624 8.00003 12.658 11.5911 10.0269 16.8178L15.2002 20.8356C16.498 16.9778 20.0891 14.1867 24.3202 14.1867Z" fill="#EA4335"/>
<path d="M39.6798 24.3556C39.6798 23.04 39.5732 22.08 39.342 21.0845H24.3198V27.0223H33.1376C32.9598 28.4978 31.9998 30.72 29.8665 32.2134L34.9154 36.1245C37.9376 33.3334 39.6798 29.2267 39.6798 24.3556Z" fill="#4285F4"/>
<path d="M15.2178 27.1645C14.8801 26.1689 14.6845 25.1023 14.6845 24C14.6845 22.8978 14.8801 21.8311 15.2001 20.8356L10.0267 16.8178C8.94229 18.9867 8.32007 21.4223 8.32007 24C8.32007 26.5778 8.94229 29.0134 10.0267 31.1823L15.2178 27.1645Z" fill="#FBBC05"/>
<path d="M24.3205 40C28.6405 40 32.2671 38.5778 34.916 36.1245L29.8671 32.2133C28.516 33.1556 26.7027 33.8133 24.3205 33.8133C20.0894 33.8133 16.4983 31.0222 15.2183 27.1645L10.0449 31.1822C12.676 36.4089 18.0627 40 24.3205 40Z" fill="#34A853"/>
</svg>
