<svg width="48" height="48" viewBox="0 0 48 48" fill="none" xmlns="http://www.w3.org/2000/svg">
<path d="M38.1699 11.8613L35.5882 40.7831L23.9833 44.0004L12.4103 40.7876L9.8313 11.8613H38.1699Z" fill="#E44D26"/>
<path d="M24.0005 41.5412L33.3778 38.9415L35.5841 14.2265H24.0005V41.5412Z" fill="#F16529"/>
<path d="M24.0007 21.3219H18.9819L19.3061 24.9548H24.0007V28.5025H16.0616L15.1047 17.7742H24.0007V21.3219Z" fill="#EBEBEB"/>
<path d="M16.2202 30.2764H19.7815L20.0341 33.1058L23.9852 34.1727L24.0008 34.1686V37.8596L23.9844 37.8642L16.7172 35.8468L16.2202 30.2764Z" fill="#EBEBEB"/>
<path d="M14.2708 4.00037H12.468V9.39443H14.2709V7.58818H15.9201V9.39443H17.723V4.00037H15.92V5.78162H14.2708V4.00037Z" fill="black"/>
<path d="M18.5067 5.78912H20.0939L20.0939 9.39443H21.8969V5.78912H23.4848V4.00037H18.5067V5.78912Z" fill="black"/>
<path d="M24.2749 4.00037H26.1548L27.3112 5.89568L28.4664 4.00037H30.3471V9.39443H28.5516V6.72083L27.3112 8.63873H27.2802L26.0389 6.72083V9.39443H24.2749V4.00037Z" fill="black"/>
<path d="M33.0478 4.00037H31.2443V9.39443H35.5832V7.61146H33.0478V4.00037Z" fill="black"/>
<path d="M23.9883 21.3219V17.7742H32.8753L32.5577 21.3219H23.9883Z" fill="white"/>
<path d="M28.3569 28.5025H23.9883V24.9548H32.2348L32.1483 25.9075L31.2613 35.8468L23.9883 37.8625V34.1715L27.9451 33.1036L28.3569 28.5025Z" fill="white"/>
</svg>
