<svg width="48" height="48" viewBox="0 0 48 48" fill="none" xmlns="http://www.w3.org/2000/svg">
<rect x="6" y="6.00037" width="36" height="36" fill="#FFCA28"/>
<path d="M27.8571 35.9416L30.5077 34.1878C30.7154 34.8404 32.0308 36.3903 33.6923 36.3903C35.3538 36.3903 36.1253 35.4828 36.1253 34.8812C36.1253 33.2416 34.4287 32.6636 33.6138 32.3859C33.4809 32.3406 33.3715 32.3034 33.2967 32.2708C33.2584 32.2541 33.2003 32.2319 33.1258 32.2034C32.2195 31.8572 28.8758 30.5797 28.8758 26.8767C28.8758 22.798 32.8121 22.3289 33.7022 22.3289C34.2845 22.3289 37.0846 22.4003 38.4791 25.0209L35.9077 26.8155C35.344 25.6735 34.4073 25.2962 33.8308 25.2962C32.4066 25.2962 32.1099 26.3403 32.1099 26.8155C32.1099 28.1491 33.6572 28.7468 34.9637 29.2515C35.3055 29.3835 35.6309 29.5092 35.9077 29.64C37.3319 30.313 39.4286 31.4142 39.4286 34.8812C39.4286 36.6176 37.9721 39.4289 34.3055 39.4289C29.3802 39.4289 28.0747 36.4719 27.8571 35.9416Z" fill="#3E3E3E"/>
<path d="M15 36.2899L17.7626 34.5369C17.9791 35.1892 18.8202 36.3918 20.0407 36.3918C21.2612 36.3918 21.8858 35.1382 21.8858 34.5369V22.7146H25.2834V34.5369C25.3384 36.1676 24.434 39.4289 20.4427 39.4289C16.773 39.4289 15.2474 37.2479 15 36.2899Z" fill="#3E3E3E"/>
</svg>
