<svg width="48" height="48" viewBox="0 0 48 48" fill="none" xmlns="http://www.w3.org/2000/svg">
<path d="M39.4293 6.00024H8.56413C7.14984 6.00024 6.00073 7.16542 6.00073 8.59578V39.4047C6.00073 40.8351 7.14984 42.0002 8.56413 42.0002H39.4293C40.8436 42.0002 42.0007 40.8351 42.0007 39.4047V8.59578C42.0007 7.16542 40.8436 6.00024 39.4293 6.00024ZM16.8811 36.8574H11.5454V19.677H16.8891V36.8574H16.8811ZM14.2132 17.3306C12.5016 17.3306 11.1195 15.9404 11.1195 14.2369C11.1195 12.5333 12.5016 11.1431 14.2132 11.1431C15.9168 11.1431 17.307 12.5333 17.307 14.2369C17.307 15.9485 15.9248 17.3306 14.2132 17.3306ZM36.882 36.8574H31.5463V28.5002C31.5463 26.5074 31.5061 23.944 28.7739 23.944C25.9936 23.944 25.5677 26.1136 25.5677 28.3556V36.8574H20.232V19.677H25.3507V22.0235H25.4231C26.1382 20.6735 27.882 19.2511 30.4775 19.2511C35.8775 19.2511 36.882 22.811 36.882 27.4395V36.8574Z" fill="#2867B2"/>
</svg>
