<svg width="32" height="32" viewBox="0 0 32 32" fill="none" xmlns="http://www.w3.org/2000/svg">
<path d="M7.16302 32.0002H0.528583V10.6355H7.16302V32.0002ZM3.84223 7.72113C1.72075 7.72113 0 5.96395 0 3.84247C0 1.72047 1.72022 0.000244141 3.84223 0.000244141C5.96423 0.000244141 7.68446 1.72047 7.68446 3.84247C7.68446 5.96395 5.96299 7.72113 3.84223 7.72113ZM31.9936 32.0002H25.3734V21.6C25.3734 19.1214 25.3234 15.9427 21.9241 15.9427C18.4747 15.9427 17.9461 18.6357 17.9461 21.4214V32.0002H11.3188V10.6355H17.6818V13.5498H17.7747C18.6604 11.8712 20.824 10.0998 24.052 10.0998C30.7664 10.0998 32.0007 14.5213 32.0007 20.2643V32.0002H31.9936Z" fill="#2867B2"/>
</svg>
