<svg width="48" height="48" viewBox="0 0 48 48" fill="none" xmlns="http://www.w3.org/2000/svg">
<path d="M22.8211 6.00969C22.7437 6.01672 22.4974 6.04135 22.2757 6.05895C17.1625 6.51988 12.373 9.27842 9.33959 13.5183C7.65044 15.8757 6.57009 18.5498 6.16188 21.3822C6.0176 22.3709 6 22.663 6 24.0035C6 25.3441 6.0176 25.6361 6.16188 26.6248C7.14018 33.384 11.9507 39.0629 18.4751 41.167C19.6434 41.5435 20.8751 41.8003 22.2757 41.9551C22.8211 42.015 25.1789 42.015 25.7243 41.9551C28.1419 41.6877 30.19 41.0896 32.21 40.0586C32.5196 39.9003 32.5795 39.8581 32.5372 39.8229C32.5091 39.8018 31.1894 38.032 29.6059 35.8927L26.7273 32.0047L23.1202 26.6671C21.1355 23.7326 19.5026 21.3329 19.4886 21.3329C19.4745 21.3294 19.4604 23.7009 19.4534 26.5967C19.4428 31.6669 19.4393 31.871 19.376 31.9906C19.2845 32.163 19.2141 32.2334 19.0663 32.3108C18.9537 32.3671 18.8551 32.3777 18.3238 32.3777H17.715L17.5531 32.2756C17.4475 32.2088 17.3701 32.1208 17.3173 32.0188L17.2434 31.8604L17.2504 24.8058L17.261 17.7476L17.3701 17.6103C17.4264 17.5364 17.546 17.4414 17.6305 17.3957C17.7748 17.3253 17.8311 17.3183 18.4399 17.3183C19.1578 17.3183 19.2774 17.3464 19.4639 17.5505C19.5167 17.6068 21.4698 20.5483 23.8065 24.0915C26.1431 27.6347 29.3384 32.4727 30.9079 34.8477L33.7584 39.1649L33.9026 39.0699C35.1801 38.2396 36.5314 37.0573 37.6012 35.8258C39.878 33.2116 41.3455 30.0238 41.8381 26.6248C41.9824 25.6361 42 25.3441 42 24.0035C42 22.663 41.9824 22.3709 41.8381 21.3822C40.8598 14.6231 36.0493 8.94415 29.5249 6.84006C28.3742 6.4671 27.1496 6.21024 25.7771 6.05543C25.4393 6.02024 23.1132 5.98154 22.8211 6.00969ZM30.19 16.8961C30.3589 16.9805 30.4962 17.1424 30.5455 17.3113C30.5736 17.4027 30.5806 19.359 30.5736 23.7678L30.563 30.0941L29.4475 28.3841L28.3284 26.6741V22.0754C28.3284 19.1022 28.3425 17.4309 28.3636 17.35C28.4199 17.1529 28.5431 16.9981 28.712 16.9066C28.8563 16.8327 28.9091 16.8257 29.4616 16.8257C29.9824 16.8257 30.0739 16.8327 30.19 16.8961Z" fill="black"/>
</svg>
