<svg width="48" height="48" viewBox="0 0 48 48" fill="none" xmlns="http://www.w3.org/2000/svg">
<path d="M23.9999 42.0001C23.5038 42.0001 23.0408 41.8678 22.6108 41.6363L18.2121 39.0235C17.5507 38.6597 17.8814 38.5275 18.0798 38.4613C18.9728 38.1637 19.1382 38.0975 20.0642 37.5683C20.1634 37.5022 20.2957 37.5353 20.3949 37.6014L23.7684 39.6189C23.9007 39.685 24.0661 39.685 24.1653 39.6189L37.3614 31.979C37.4937 31.9128 37.5599 31.7806 37.5599 31.6152V16.3685C37.5599 16.2032 37.4937 16.0709 37.3614 16.0047L24.1653 8.39792C24.033 8.33177 23.8676 8.33177 23.7684 8.39792L10.5723 16.0047C10.44 16.0709 10.3738 16.2362 10.3738 16.3685V31.6152C10.3738 31.7475 10.44 31.9128 10.5723 31.979L14.1772 34.0626C16.1285 35.0548 17.3522 33.8972 17.3522 32.7397V17.6914C17.3522 17.493 17.5176 17.2946 17.7491 17.2946H19.4358C19.6343 17.2946 19.8327 17.4599 19.8327 17.6914V32.7397C19.8327 35.3524 18.4106 36.8738 15.9301 36.8738C15.1694 36.8738 14.5741 36.8738 12.8874 36.047L9.4147 34.0626C8.5548 33.5665 8.02563 32.6405 8.02563 31.6483V16.4016C8.02563 15.4094 8.5548 14.4834 9.4147 13.9873L22.6108 6.34739C23.4377 5.88437 24.5622 5.88437 25.389 6.34739L38.5851 13.9873C39.445 14.4834 39.9742 15.4094 39.9742 16.4016V31.6483C39.9742 32.6405 39.445 33.5665 38.5851 34.0626L25.389 41.7025C24.959 41.9009 24.4629 42.0001 23.9999 42.0001ZM28.0679 31.516C22.2801 31.516 21.0895 28.8701 21.0895 26.6212C21.0895 26.4227 21.2548 26.2243 21.4864 26.2243H23.2062C23.4046 26.2243 23.57 26.3566 23.57 26.555C23.8345 28.3079 24.5952 29.1678 28.101 29.1678C30.8791 29.1678 32.0697 28.5394 32.0697 27.0511C32.0697 26.1912 31.739 25.5628 27.4064 25.1329C23.8015 24.7691 21.5525 23.9753 21.5525 21.098C21.5525 18.419 23.8015 16.8315 27.5718 16.8315C31.8051 16.8315 33.8888 18.2868 34.1533 21.4618C34.1533 21.561 34.1203 21.6602 34.0541 21.7594C33.988 21.8256 33.8888 21.8917 33.7895 21.8917H32.0697C31.9044 21.8917 31.739 21.7594 31.7059 21.5941C31.3091 19.775 30.2838 19.1797 27.5718 19.1797C24.5291 19.1797 24.1653 20.2381 24.1653 21.0318C24.1653 21.9909 24.5952 22.2886 28.6963 22.8178C32.7643 23.3469 34.6825 24.1076 34.6825 26.9519C34.6494 29.8623 32.2682 31.516 28.0679 31.516Z" fill="#539E43"/>
</svg>
