<svg width="48" height="48" viewBox="0 0 48 48" fill="none" xmlns="http://www.w3.org/2000/svg">
<path d="M35.5992 18.3667C35.2258 18.2381 34.8388 18.1165 34.4403 18.0015C34.5058 17.7342 34.5659 17.4704 34.6194 17.2111C35.4966 12.9528 34.9231 9.5223 32.9645 8.39283C31.0864 7.30982 28.015 8.43903 24.9131 11.1386C24.6148 11.3982 24.3157 11.673 24.0167 11.961C23.8174 11.7705 23.6185 11.5863 23.4201 11.4101C20.1692 8.52362 16.9106 7.30719 14.954 8.43993C13.0777 9.52608 12.5221 12.7511 13.3117 16.7867C13.388 17.1765 13.4771 17.5745 13.5779 17.9793C13.1167 18.1102 12.6715 18.2497 12.2455 18.3982C8.43412 19.727 6 21.8096 6 23.9698C6 26.2008 8.61303 28.4386 12.5829 29.7955C12.8962 29.9026 13.2212 30.0038 13.5563 30.1C13.4475 30.5377 13.3529 30.9666 13.2735 31.385C12.5206 35.3506 13.1086 38.4994 14.9798 39.5787C16.9127 40.6933 20.1565 39.5476 23.3152 36.7865C23.5648 36.5683 23.8154 36.3368 24.0664 36.0942C24.3917 36.4075 24.7165 36.704 25.0396 36.9821C28.0992 39.6149 31.121 40.6781 32.9905 39.5958C34.9214 38.478 35.5489 35.0954 34.7342 30.98C34.672 30.6657 34.5996 30.3445 34.5183 30.0177C34.7461 29.9504 34.9697 29.8809 35.1878 29.8086C39.3148 28.4412 42 26.2306 42 23.9698C42 21.8018 39.4874 19.7052 35.5992 18.3667ZM34.7041 28.3488C34.5072 28.414 34.3053 28.477 34.0994 28.538C33.6438 27.0957 33.0289 25.5619 32.2764 23.9773C32.9945 22.4304 33.5857 20.9163 34.0285 19.4833C34.3968 19.5898 34.7542 19.7022 35.0986 19.8208C38.43 20.9677 40.4621 22.6633 40.4621 23.9698C40.4621 25.3615 38.2675 27.1681 34.7041 28.3488ZM33.2255 31.2786C33.5858 33.0984 33.6372 34.7437 33.3986 36.0299C33.1842 37.1857 32.753 37.9562 32.2199 38.2648C31.0853 38.9215 28.6592 38.0679 26.0426 35.8163C25.7426 35.5582 25.4405 35.2826 25.1374 34.9909C26.1518 33.8815 27.1656 32.5918 28.155 31.1594C29.8954 31.005 31.5396 30.7525 33.0307 30.4078C33.1041 30.704 33.1693 30.9946 33.2255 31.2786ZM18.2732 38.1514C17.1648 38.5428 16.2819 38.554 15.7483 38.2463C14.6127 37.5914 14.1407 35.0632 14.7846 31.6718C14.8584 31.2834 14.9461 30.8845 15.0473 30.4767C16.522 30.8028 18.1542 31.0374 19.8987 31.1789C20.8948 32.5805 21.9379 33.8688 22.9891 34.9969C22.7594 35.2186 22.5307 35.4296 22.3032 35.6285C20.9064 36.8495 19.5067 37.7157 18.2732 38.1514ZM13.0803 28.3403C11.3249 27.7403 9.87521 26.9605 8.88153 26.1096C7.98864 25.3449 7.53784 24.5858 7.53784 23.9698C7.53784 22.6589 9.49221 20.9869 12.7517 19.8504C13.1472 19.7125 13.5613 19.5826 13.9909 19.4605C14.4414 20.9259 15.0323 22.458 15.7455 24.0072C15.0231 25.5795 14.4238 27.136 13.9689 28.6185C13.6626 28.5305 13.3658 28.4378 13.0803 28.3403ZM14.821 16.4913C14.1444 13.0337 14.5938 10.4254 15.7245 9.77092C16.9288 9.07367 19.592 10.0678 22.399 12.5602C22.5784 12.7195 22.7585 12.8862 22.9392 13.0587C21.8932 14.1818 20.8597 15.4605 19.8724 16.8538C18.1793 17.0108 16.5586 17.2628 15.0685 17.6004C14.9748 17.2236 14.8918 16.8533 14.821 16.4913ZM30.3498 20.3258C29.9935 19.7105 29.6278 19.1097 29.255 18.5254C30.4037 18.6706 31.5042 18.8634 32.5376 19.0992C32.2274 20.0936 31.8406 21.1333 31.3854 22.1991C31.0589 21.5792 30.7135 20.9541 30.3498 20.3258ZM24.0172 14.1578C24.7265 14.9263 25.4369 15.7843 26.1356 16.7153C25.4315 16.682 24.7187 16.6647 24 16.6647C23.2881 16.6647 22.5805 16.6816 21.8808 16.7143C22.5802 15.792 23.2967 14.9352 24.0172 14.1578ZM17.644 20.3364C17.2882 20.9534 16.9492 21.5751 16.6278 22.198C16.1799 21.1359 15.7968 20.0914 15.4838 19.083C16.511 18.8531 17.6063 18.6652 18.7476 18.5227C18.3695 19.1124 18.0008 19.7176 17.644 20.3363V20.3364ZM18.7805 29.5266C17.6013 29.395 16.4895 29.2168 15.4626 28.9932C15.7806 27.9668 16.1722 26.9 16.6295 25.815C16.9518 26.4374 17.2921 27.0594 17.6501 27.6778H17.6502C18.0148 28.3077 18.3927 28.9248 18.7805 29.5266ZM24.0597 33.8902C23.3308 33.1038 22.6038 32.2338 21.8937 31.2981C22.583 31.3251 23.2858 31.3389 24 31.3389C24.7338 31.3389 25.4592 31.3224 26.1731 31.2906C25.4721 32.2432 24.7643 33.1145 24.0597 33.8902ZM31.4001 25.7597C31.8813 26.8564 32.2869 27.9176 32.609 28.9266C31.5652 29.1647 30.4382 29.3565 29.2508 29.499C29.6245 28.9068 29.9934 28.2957 30.3559 27.6672C30.7226 27.0313 31.0709 26.3944 31.4001 25.7597ZM29.0238 26.8989C28.461 27.8746 27.8833 28.8061 27.2968 29.6853C26.2285 29.7617 25.1249 29.801 24 29.801C22.8797 29.801 21.79 29.7662 20.7406 29.6981C20.1304 28.8073 19.5401 27.8731 18.981 26.9073H18.9811C18.4234 25.944 17.9101 24.9726 17.4451 24.0067C17.91 23.0385 18.4219 22.0661 18.9764 21.1045L18.9763 21.1047C19.5322 20.1407 20.1174 19.211 20.7219 18.3258C21.7925 18.2449 22.8904 18.2026 23.9999 18.2026H24C25.1145 18.2026 26.2138 18.2452 27.2841 18.3268C27.8794 19.2055 28.4606 20.1322 29.0187 21.0964C29.5832 22.0714 30.1017 23.0374 30.5707 23.9848C30.1031 24.9485 29.5857 25.9243 29.0238 26.8989ZM32.1963 9.72517C33.4018 10.4204 33.8706 13.2241 33.1132 16.9007C33.0649 17.1353 33.0105 17.3742 32.9514 17.6164C31.4578 17.2718 29.836 17.0153 28.1379 16.856C27.1487 15.4473 26.1237 14.1667 25.0947 13.058C25.3714 12.7919 25.6476 12.5381 25.9227 12.2987C28.5805 9.98572 31.0645 9.07252 32.1963 9.72517ZM24 20.7551C25.7754 20.7551 27.2147 22.1943 27.2147 23.9698C27.2147 25.7452 25.7754 27.1845 24 27.1845C22.2246 27.1845 20.7853 25.7452 20.7853 23.9698C20.7853 22.1943 22.2246 20.7551 24 20.7551Z" fill="#00D8FF"/>
</svg>
