<svg width="48" height="48" viewBox="0 0 48 48" fill="none" xmlns="http://www.w3.org/2000/svg">
<path d="M30.9442 30.7805C32.2727 30.6431 33.2806 29.4978 33.2348 28.1234C33.189 26.749 32.0437 25.6495 30.6693 25.6495H30.5777C29.1575 25.6953 28.0581 26.8864 28.1039 28.3066C28.1497 28.9938 28.4246 29.5894 28.8369 30.0017C27.2793 33.0712 24.8971 35.316 21.3238 37.1944C18.8958 38.4771 16.3761 38.9353 13.8565 38.6146C11.795 38.3397 10.1916 37.4234 9.18373 35.9116C7.71776 33.6668 7.58032 31.2387 8.81724 28.8106C9.68765 27.0697 11.062 25.7869 11.9324 25.1455C11.7492 24.5499 11.4743 23.5421 11.3369 22.809C4.6942 27.6194 5.38137 34.1249 7.39708 37.1944C8.90886 39.485 11.9782 40.9052 15.3683 40.9052C16.2845 40.9052 17.2007 40.8136 18.117 40.5846C23.9808 39.4392 28.4246 35.9574 30.9442 30.7805ZM39.007 25.0997C35.5253 21.0223 30.3945 18.7775 24.5306 18.7775H23.7976C23.3853 17.9528 22.5149 17.4031 21.5528 17.4031H21.4612C20.0411 17.4489 18.9416 18.64 18.9874 20.0602C19.0332 21.4346 20.1785 22.5342 21.5528 22.5342H21.6445C22.6523 22.4883 23.5227 21.847 23.8892 20.9765H24.7138C28.1955 20.9765 31.4939 21.9844 34.4717 23.9544C36.7623 25.4662 38.4115 27.4362 39.3277 29.8185C40.1065 31.7426 40.0607 33.621 39.2361 35.2244C37.9534 37.6525 35.8002 38.9811 32.9599 38.9811C31.1274 38.9811 29.3866 38.4313 28.4704 38.019C27.9664 38.4771 27.0502 39.2102 26.4089 39.6683C28.3788 40.5846 30.3945 41.0885 32.3185 41.0885C36.7164 41.0885 39.9691 38.6604 41.206 36.2323C42.5345 33.5751 42.4429 28.9938 39.007 25.0997ZM15.7348 31.5594C15.7806 32.9338 16.9259 34.0333 18.3002 34.0333H18.3918C19.812 33.9875 20.9115 32.7963 20.8657 31.3761C20.8199 30.0017 19.6746 28.9022 18.3002 28.9022H18.2086C18.117 28.9022 17.9795 28.9022 17.8879 28.948C16.0096 25.8327 15.2308 22.4425 15.5057 18.7775C15.689 16.0287 16.6052 13.6464 18.2086 11.6764C19.5371 9.98135 22.1026 9.15671 23.8434 9.1109C28.6994 9.01927 30.761 15.0666 30.8984 17.4947C31.4939 17.6322 32.5018 17.9528 33.189 18.1819C32.6392 10.7602 28.0581 6.91187 23.6602 6.91187C19.5371 6.91187 15.7348 9.88972 14.223 14.2878C12.1157 20.1519 13.49 25.7869 16.0555 30.2308C15.8264 30.5515 15.689 31.0554 15.7348 31.5594Z" fill="#764ABC"/>
</svg>
