<?xml version="1.0" standalone="no"?>
<!DOCTYPE svg PUBLIC "-//W3C//DTD SVG 20010904//EN"
 "http://www.w3.org/TR/2001/REC-SVG-20010904/DTD/svg10.dtd">
<svg version="1.0" xmlns="http://www.w3.org/2000/svg"
 width="260.000000pt" height="300.000000pt" viewBox="0 0 260.000000 300.000000"
 preserveAspectRatio="xMidYMid meet">

<g transform="translate(0.000000,300.000000) scale(0.100000,-0.100000)"
fill="#000000" stroke="none">
<path d="M932 2229 l3 -52 133 -77 133 -78 -182 -106 -181 -106 -163 95 c-90
52 -171 98 -179 101 -14 5 -16 -18 -16 -205 l0 -210 48 -27 c26 -15 65 -39 88
-53 23 -14 84 -48 136 -75 l94 -50 52 32 52 32 0 -59 c0 -33 2 -65 5 -73 4
-12 -93 -78 -117 -78 -5 0 -78 40 -161 89 -84 48 -162 93 -174 100 l-23 12 0
-214 0 -214 178 -96 c98 -54 182 -97 187 -97 4 0 30 13 57 30 26 16 50 30 53
30 2 0 5 -32 7 -71 l3 -71 179 -99 c99 -54 182 -96 185 -95 4 2 84 49 179 105
l172 102 0 50 c0 27 2 49 5 49 2 0 24 -10 48 -21 l44 -22 176 104 177 104 0
208 c0 114 -2 207 -4 207 -3 0 -82 -45 -176 -100 -94 -55 -176 -100 -182 -100
-9 0 -103 53 -117 66 -3 3 5 11 17 20 17 12 22 25 22 59 l0 45 43 -21 44 -21
104 62 c57 34 137 82 177 107 l72 45 0 210 0 210 -32 -20 c-18 -11 -100 -58
-181 -106 l-148 -86 -155 90 c-85 50 -166 96 -179 102 -14 6 -25 14 -25 17 0
3 54 38 120 76 l120 70 0 63 c0 34 -3 62 -6 62 -3 0 -75 -41 -160 -90 -85 -50
-165 -95 -178 -101 -21 -10 -42 -1 -177 78 -224 131 -201 124 -197 62z m621
-407 c70 -41 127 -76 125 -77 -15 -12 -352 -205 -358 -205 -7 0 -348 195 -358
205 -2 2 77 51 174 109 l177 106 56 -32 c31 -17 114 -65 184 -106z m119 -654
c-4 -4 -85 -52 -180 -107 l-172 -101 -172 100 c-94 54 -176 101 -182 103 -6 2
-9 6 -6 9 14 12 112 68 120 68 6 0 49 -22 97 -49 166 -91 133 -90 263 -12
l113 68 63 -36 c34 -20 59 -39 56 -43z"/>
<path d="M2410 2150 l-175 -98 -3 -540 c-2 -498 -3 -540 -20 -554 -9 -8 -210
-129 -447 -268 -236 -139 -437 -258 -446 -263 -12 -7 -125 54 -477 258 l-462
267 -2 540 -3 540 -170 100 c-94 55 -176 102 -183 105 -10 4 -12 -145 -10
-742 l3 -748 290 -167 c160 -91 451 -259 647 -372 l356 -205 644 371 643 372
3 752 c1 414 -1 752 -5 751 -5 0 -87 -45 -183 -99z"/>
</g>
</svg>
