<svg width="48" height="48" viewBox="0 0 48 48" fill="none" xmlns="http://www.w3.org/2000/svg">
<path d="M24 12.0001C18.6667 12.0001 15.3333 14.6668 14 20.0001C16 17.3335 18.3333 16.3335 21 17.0001C22.5215 17.3805 23.609 18.4843 24.8127 19.7061C26.7736 21.6965 29.043 24.0001 34 24.0001C39.3333 24.0001 42.6667 21.3335 44 16.0001C42 18.6668 39.6667 19.6668 37 19.0001C35.4785 18.6198 34.391 17.516 33.1873 16.2941C31.2264 14.3038 28.957 12.0001 24 12.0001ZM14 24.0001C8.66667 24.0001 5.33333 26.6668 4 32.0001C6 29.3335 8.33333 28.3335 11 29.0001C12.5215 29.3805 13.609 30.4843 14.8127 31.7061C16.7736 33.6965 19.043 36.0001 24 36.0001C29.3333 36.0001 32.6667 33.3335 34 28.0001C32 30.6668 29.6667 31.6668 27 31.0001C25.4785 30.6198 24.391 29.516 23.1873 28.2941C21.2264 26.3038 18.957 24.0001 14 24.0001Z" fill="url(#paint0_linear_2_9329)"/>
<defs>
<linearGradient id="paint0_linear_2_9329" x1="2.88889" y1="19.6801" x2="37.4354" y2="39.5989" gradientUnits="userSpaceOnUse">
<stop stop-color="#2298BD"/>
<stop offset="1" stop-color="#0ED7B5"/>
</linearGradient>
</defs>
</svg>
