<svg width="48" height="48" viewBox="0 0 48 48" fill="none" xmlns="http://www.w3.org/2000/svg">
<path d="M36.7107 17.4824C36.7311 17.7667 36.731 18.051 36.731 18.3352C36.731 27.0052 30.1321 36.9952 18.0711 36.9952C14.3553 36.9952 10.9036 35.919 8 34.051C8.52794 34.1119 9.0355 34.1322 9.58376 34.1322C12.6497 34.1322 15.4721 33.0967 17.7259 31.3302C14.8427 31.2693 12.4264 29.3809 11.5939 26.7819C12 26.8428 12.4061 26.8834 12.8325 26.8834C13.4213 26.8834 14.0102 26.8022 14.5584 26.6601C11.5533 26.0509 9.29944 23.4114 9.29944 20.2235V20.1423C10.1725 20.6297 11.1878 20.9342 12.2639 20.9748C10.4974 19.7971 9.34007 17.787 9.34007 15.5128C9.34007 14.2946 9.66488 13.1778 10.2334 12.2032C13.4619 16.1829 18.3147 18.7818 23.7563 19.0662C23.6548 18.5788 23.5939 18.0713 23.5939 17.5636C23.5939 13.9494 26.5178 11.0052 30.1523 11.0052C32.0406 11.0052 33.7462 11.7971 34.9442 13.0763C36.4264 12.7921 37.8477 12.2438 39.1066 11.4926C38.6192 13.0154 37.5837 14.2946 36.2234 15.1068C37.5432 14.9647 38.8224 14.5991 40 14.0916C39.1067 15.391 37.9899 16.5483 36.7107 17.4824Z" fill="#1DA1F2"/>
</svg>
