<svg width="48" height="48" viewBox="0 0 48 48" fill="none" xmlns="http://www.w3.org/2000/svg">
<path d="M6 24.0009V42.0009H24H42V24.0009V6.00085H24H6V24.0009Z" fill="#007ACC"/>
<path d="M13.961 24.1202L13.9495 25.5945H16.2924H18.6353V32.2517V38.9088H20.2924H21.9495V32.2517V25.5945H24.2924H26.6353L26.6353 24.1488C26.6353 23.3488 26.6181 22.6802 26.5953 22.6631C26.5781 22.6402 23.7267 22.6288 20.2695 22.6345L13.9781 22.6517L13.961 24.1202Z" fill="white"/>
<path d="M35.0484 22.6098C35.9627 22.8384 36.6598 23.2441 37.2998 23.9069C37.6313 24.2612 38.1227 24.9069 38.1627 25.0612C38.1741 25.1069 36.6084 26.1584 35.6598 26.7469C35.6256 26.7698 35.4884 26.6212 35.3341 26.3927C34.8713 25.7184 34.3856 25.4269 33.6427 25.3755C32.5513 25.3012 31.8484 25.8727 31.8541 26.8269C31.8541 27.1069 31.8941 27.2727 32.0084 27.5012C32.2484 27.9984 32.6941 28.2955 34.0941 28.9012C36.6713 30.0098 37.7741 30.7412 38.4598 31.7812C39.2256 32.9412 39.397 34.7927 38.877 36.1698C38.3056 37.6669 36.8884 38.6841 34.8941 39.0212C34.277 39.1298 32.8141 39.1127 32.1513 38.9927C30.7056 38.7355 29.3341 38.0212 28.4884 37.0841C28.157 36.7184 27.5113 35.7641 27.5513 35.6955C27.5684 35.6727 27.717 35.5812 27.8827 35.4841C28.0427 35.3927 28.6484 35.0441 29.2198 34.7127L30.2541 34.1127L30.4713 34.4327C30.7741 34.8955 31.437 35.5298 31.837 35.7412C32.9856 36.3469 34.5627 36.2612 35.3398 35.5641C35.6713 35.2612 35.8084 34.9469 35.8084 34.4841C35.8084 34.0669 35.757 33.8841 35.5398 33.5698C35.2598 33.1698 34.6884 32.8327 33.0656 32.1298C31.2084 31.3298 30.4084 30.8327 29.677 30.0441C29.2541 29.5869 28.8541 28.8555 28.6884 28.2441C28.5513 27.7355 28.517 26.4612 28.6256 25.9469C29.0084 24.1527 30.3627 22.9012 32.317 22.5298C32.9513 22.4098 34.4256 22.4555 35.0484 22.6098Z" fill="white"/>
</svg>
